# xmcd CD database file
#
# Track frame offsets:
#	150
#	16626
#	35847
#	51928
#	67048
#	85347
#	99180
#	114858
#	126701
#	138943
#	157088
#	170349
#
# Disc length: 2466 seconds
#
# Revision: 1
# Processed by: cddbd v1.4b42PL0 Copyright (c) Steve Scherf et al.
# Submitted via: CDex 1.40Beta5
#
DISCID=9f09a00c
DTITLE=Keith Whitley - Tennessee Courage
DYEAR=1985
DGENRE=Country
TTITLE0=Stranger To The Rain
TTITLE1=Don't Close Your Eyes
TTITLE2=Till A Tear Becomes A Rose
TTITLE3=Between An Old Memory And Me
TTITLE4=It Ain't Nothin'
TTITLE5=I'm Over You
TTITLE6=Turn This Thing Around
TTITLE7=Lady's Choice
TTITLE8=Brother Jukebox
TTITLE9=Tennessee Courage
TTITLE10=Heartbreak Highway
TTITLE11=I Wonder Do You Think Of Me
EXTD=YEAR: 1985 ID3G:   2
EXTT0=
EXTT1=
EXTT2=
EXTT3=
EXTT4=
EXTT5=
EXTT6=
EXTT7=
EXTT8=
EXTT9=
EXTT10=
EXTT11=
PLAYORDER=
